<svg width="39" height="39" viewBox="0 0 39 39" fill="none" xmlns="http://www.w3.org/2000/svg">
<circle opacity="0.1" cx="19.4898" cy="19.4966" r="19.4966" fill="#DF6F79"/>
<path fill-rule="evenodd" clip-rule="evenodd" d="M25.5736 14.3454C25.8464 14.3454 26.0735 14.5727 26.0735 14.8619V15.1293C26.0735 15.4115 25.8464 15.6458 25.5736 15.6458H13.9532C13.6798 15.6458 13.4527 15.4115 13.4527 15.1293V14.8619C13.4527 14.5727 13.6798 14.3454 13.9532 14.3454H15.9976C16.4129 14.3454 16.7743 14.0492 16.8677 13.6312L16.9748 13.1513C17.1412 12.4976 17.6887 12.0635 18.3154 12.0635H21.2108C21.8306 12.0635 22.3843 12.4976 22.5446 13.1169L22.6592 13.6305C22.7519 14.0492 23.1133 14.3454 23.5293 14.3454H25.5736ZM24.5346 24.1185C24.748 22.1222 25.1217 17.3796 25.1217 17.3317C25.1353 17.1868 25.0883 17.0495 24.9949 16.9391C24.8946 16.8356 24.7678 16.7744 24.628 16.7744H14.9026C14.7621 16.7744 14.6285 16.8356 14.5358 16.9391C14.4417 17.0495 14.3953 17.1868 14.4021 17.3317C14.4034 17.3405 14.4168 17.5076 14.4392 17.7869C14.5388 19.0276 14.8161 22.4833 14.9954 24.1185C15.1222 25.3232 15.9098 26.0803 17.0506 26.1078C17.931 26.1282 18.8379 26.1352 19.7653 26.1352C20.6388 26.1352 21.526 26.1282 22.4336 26.1078C23.614 26.0874 24.4009 25.3436 24.5346 24.1185Z" fill="#D11A2A"/>
</svg>
