<svg width="39" height="39" viewBox="0 0 39 39" fill="none" xmlns="http://www.w3.org/2000/svg">
<circle opacity="0.5" cx="19.4966" cy="19.4966" r="19.4966" fill="#FEEFA8"/>
<path fill-rule="evenodd" clip-rule="evenodd" d="M17.5339 25.3768L24.5546 16.493C24.9361 16.014 25.0718 15.4601 24.9446 14.8961C24.8344 14.3834 24.5122 13.896 24.0289 13.5262L22.8503 12.61C21.8243 11.8116 20.5525 11.8956 19.8233 12.8118L19.0347 13.8128C18.933 13.938 18.9584 14.1229 19.0856 14.2237C19.0856 14.2237 21.0782 15.787 21.1205 15.8206C21.2562 15.9467 21.358 16.1148 21.3834 16.3165C21.4258 16.7115 21.146 17.0813 20.7305 17.1318C20.5355 17.157 20.349 17.0982 20.2133 16.9889L18.119 15.3584C18.0172 15.2836 17.8646 15.2996 17.7798 15.4004L12.8026 21.7039C12.4804 22.099 12.3702 22.6117 12.4804 23.1075L13.1164 25.8054C13.1503 25.9483 13.2775 26.0492 13.4301 26.0492L16.2282 26.0156C16.7369 26.0072 17.2117 25.7802 17.5339 25.3768ZM21.4517 24.5371H26.0143C26.4594 24.5371 26.8215 24.896 26.8215 25.3372C26.8215 25.7793 26.4594 26.1374 26.0143 26.1374H21.4517C21.0066 26.1374 20.6445 25.7793 20.6445 25.3372C20.6445 24.896 21.0066 24.5371 21.4517 24.5371Z" fill="#F2994A"/>
</svg>
